<svg width="32" height="29" viewBox="0 0 32 29" fill="none" xmlns="http://www.w3.org/2000/svg">
<path d="M26.2487 6.94273C25.954 6.61524 25.561 4.55207 25.2335 3.50411C24.906 2.45615 24.3166 0.26199 23.3669 0C23.3341 0 23.3014 0 23.2686 0C22.2534 0 22.7774 5.2398 21.4019 5.76378C21.3692 5.76378 21.3037 5.79652 21.2054 5.79652C20.223 5.79652 16.4896 5.01055 17.2101 3.7661C17.7996 2.75089 18.2253 1.47369 17.8323 1.3427C17.5376 1.24445 16.7844 1.17895 15.9656 1.17895C14.4592 1.17895 12.658 1.3427 12.4943 1.67018C12.2323 2.19416 11.9703 3.40587 11.5773 3.92985C11.5118 3.99534 11.4463 4.02809 11.3808 4.02809C10.9223 4.02809 10.0381 3.11113 9.4814 3.11113C9.38315 3.11113 9.2849 3.14388 9.18666 3.24212C5.71529 7.00823 7.25448 6.64799 5.15857 9.13689C4.27435 10.1849 0.868483 10.1194 0.213508 11.7895C-0.8672 14.6714 2.47317 20.0422 3.12814 20.8937C3.78312 21.7452 2.53867 22.7931 3.97961 23.0879C4.14335 23.1206 4.3071 23.1533 4.47084 23.1533C5.74804 23.1533 7.09074 22.0399 10.0709 20.1732C12.003 18.9943 13.0838 18.6668 13.837 18.6668C14.3937 18.6668 14.7867 18.8305 15.1797 18.9615C16.0966 19.2235 17.5703 20.9919 18.0616 21.1229C18.0943 21.1229 18.1598 21.1557 18.1926 21.1557C18.5855 21.1557 18.8475 20.6644 19.2405 20.6644C19.2733 20.6644 19.306 20.6644 19.3715 20.6644C19.8955 20.7954 18.651 21.1884 21.7622 23.8411C22.2861 24.2996 22.7119 24.4633 23.0721 24.4633C23.7598 24.4633 24.2183 23.8738 24.7096 23.6773C24.775 23.6446 24.8405 23.6446 24.906 23.6446C25.3645 23.6446 25.561 24.2668 26.216 24.2668C26.347 24.2668 26.5107 24.2341 26.7072 24.1686C27.9189 23.7101 28.7376 24.0703 28.7704 23.2188C28.8031 20.8609 31.7505 18.9288 31.7178 14.2784C31.7833 11.3638 26.5435 7.27022 26.2487 6.94273ZM28.1809 23.2516C28.0827 23.2843 27.9517 23.2843 27.8207 23.3171C27.4932 23.3498 27.0347 23.4153 26.5435 23.6118C26.4452 23.6446 26.347 23.6773 26.2815 23.6773C26.1832 23.6773 26.085 23.6118 25.9213 23.4808C25.692 23.3171 25.43 23.0551 24.9715 23.0551C24.8405 23.0551 24.6768 23.0878 24.5458 23.1206C24.2838 23.2188 24.0546 23.3498 23.8581 23.5136C23.5961 23.7101 23.3669 23.8411 23.1376 23.8411C22.9084 23.8411 22.6136 23.6773 22.2534 23.3826C20.9434 22.2364 20.2557 21.4177 20.2557 20.8937C20.2557 20.337 19.8955 20.1077 19.6007 20.0422C19.5025 20.0095 19.4043 20.0095 19.306 20.0095C18.8803 20.0095 18.5855 20.2387 18.389 20.4025C18.3563 20.4352 18.3236 20.468 18.2908 20.5007C18.1271 20.3697 17.7996 20.075 17.5703 19.8457C16.9154 19.2235 16.1621 18.5358 15.4744 18.3393C15.4089 18.3065 15.3107 18.3065 15.2452 18.2738C14.9177 18.1755 14.5247 18.0445 13.968 18.0445C12.92 18.0445 11.6101 18.5358 9.84163 19.6492C9.08841 20.1077 8.46619 20.5335 7.87671 20.8937C6.27202 21.9089 5.32231 22.5311 4.56909 22.5311C4.47084 22.5311 4.33985 22.5311 4.2416 22.4984C4.11061 22.4656 4.04511 22.4329 4.01236 22.4329C4.01236 22.3674 4.04511 22.2364 4.04511 22.1381C4.11061 21.7452 4.20885 21.1229 3.75037 20.5662C2.83341 19.3872 -0.0484816 14.4422 0.835734 12.0515C1.09772 11.3966 2.24393 11.0363 3.29189 10.7416C4.27435 10.4468 5.19131 10.1849 5.68254 9.59538C6.63226 8.44917 6.89425 7.85969 7.12349 7.27022C7.41823 6.58249 7.74571 5.82927 9.57964 3.8316C9.74339 3.8971 10.0381 4.09359 10.2019 4.19184C10.6276 4.45383 11.0206 4.71582 11.4136 4.71582C11.7083 4.71582 11.9703 4.58482 12.134 4.35558C12.4288 3.9626 12.6253 3.34037 12.8218 2.75089C12.8873 2.52165 12.9855 2.29241 13.051 2.12867C13.4112 1.99767 14.5247 1.86668 15.9984 1.86668C16.5551 1.86668 17.0136 1.89943 17.3083 1.93217C17.2428 2.25966 17.0136 2.84914 16.6534 3.47136C16.4241 3.86435 16.4241 4.32283 16.6534 4.71582C17.4066 6.02576 20.5832 6.4515 21.2382 6.4515C21.4019 6.4515 21.5329 6.41875 21.6639 6.386C22.7774 5.96027 22.9739 4.19184 23.2031 2.4889C23.2686 1.96492 23.3669 1.24445 23.4651 0.818718C23.7926 1.17895 24.1528 2.06317 24.5786 3.43862L24.6441 3.70061C24.7423 4.06084 24.8733 4.58482 25.0043 5.07605C25.3645 6.48425 25.5283 7.07372 25.7903 7.40121C25.8558 7.46671 25.954 7.56496 26.216 7.76145C29.4909 10.6106 31.161 12.8375 31.161 14.3439C31.161 16.8983 30.2113 18.5685 29.3926 20.0422C28.7704 21.0902 28.1809 22.1054 28.1809 23.2516Z" fill="#825E3A"/>
<path d="M27.1658 25.486C27.0675 25.4205 26.9038 25.3878 26.7728 25.3878C26.4125 25.3878 25.9213 25.5515 25.3973 25.5515C25.1026 25.5515 24.7751 25.5188 24.4476 25.355C24.3494 25.3223 24.2511 25.2895 24.1856 25.2895C23.2032 25.2895 23.9891 28.5316 25.5611 28.5316C25.6593 28.5316 25.7576 28.5316 25.8886 28.4989C27.788 27.9749 27.8535 25.9772 27.1658 25.486ZM26.9038 26.6977C26.8383 27.0252 26.609 27.5819 25.7248 27.8112C25.6593 27.8112 25.6266 27.8439 25.5938 27.8439C25.2663 27.8439 25.0044 27.5164 24.8734 27.3199C24.5786 26.8615 24.4476 26.3375 24.4476 26.0427C24.7751 26.141 25.1026 26.2065 25.4301 26.2065C25.7903 26.2065 26.0851 26.141 26.347 26.1082C26.5108 26.0755 26.6745 26.0427 26.8055 26.0427C26.8383 26.0427 26.8383 26.0427 26.8383 26.0427C26.871 26.1082 26.9693 26.3702 26.9038 26.6977Z" fill="#825E3A"/>
</svg>
