<svg width="31" height="34" viewBox="0 0 31 34" fill="none" xmlns="http://www.w3.org/2000/svg">
<path d="M30.9693 30.6352C28.4195 21.6484 27.3989 12.1312 27.9361 2.3528C27.9479 2.14396 27.8688 1.93681 27.7138 1.77342C27.5488 1.59827 27.313 1.49385 27.0856 1.49385H23.431V1.24796C23.431 0.559113 22.8701 0 22.183 0C21.4942 0 20.9351 0.560837 20.9351 1.24796V1.49385H17.9776V1.24796C17.9776 0.559113 17.4168 0 16.7297 0C16.0408 0 15.4817 0.560837 15.4817 1.24796V1.49385H12.5243V1.24796C12.5243 0.559113 11.9635 0 11.2763 0C10.5875 0 10.0284 0.560837 10.0284 1.24796V1.49385H7.07097V1.24796C7.07097 0.559113 6.51014 0 5.82302 0C5.13417 0 4.57506 0.560837 4.57506 1.24796V1.49385H0.854724C0.800831 1.49385 0.748623 1.50058 0.699782 1.51069C0.672836 1.51574 0.647575 1.52753 0.622309 1.53595C0.603783 1.54269 0.583573 1.54774 0.565049 1.55616C0.268634 1.68416 0.0581047 2.00249 0.0581047 2.37465V3.63779C-0.0193682 5.79521 -0.0193682 7.95617 0.0581047 10.1201V33.0602C0.0581047 33.5452 0.415148 33.941 0.854737 33.941H27.0892C27.5288 33.941 27.8859 33.5452 27.8859 33.0602V31.568H30.242C30.4812 31.568 30.7102 31.4535 30.855 31.2632C30.9915 31.083 31.0336 30.8539 30.9729 30.635L30.9693 30.6352ZM21.6139 1.2482C21.6139 0.93494 21.8699 0.67895 22.1831 0.67895C22.4964 0.67895 22.7524 0.934945 22.7524 1.2482V3.87889C22.7524 4.19214 22.4964 4.44813 22.1831 4.44813C21.8699 4.44813 21.6139 4.19214 21.6139 3.87889V1.2482ZM16.159 1.2482C16.159 0.93494 16.415 0.67895 16.7282 0.67895C17.0415 0.67895 17.2975 0.934945 17.2975 1.2482V3.87889C17.2975 4.19214 17.0415 4.44813 16.7282 4.44813C16.415 4.44813 16.159 4.19214 16.159 3.87889V1.2482ZM10.7041 1.2482C10.7041 0.93494 10.9601 0.67895 11.2733 0.67895C11.5866 0.67895 11.8426 0.934945 11.8426 1.2482V3.87889C11.8426 4.19214 11.5866 4.44813 11.2733 4.44813C10.9584 4.44813 10.7041 4.19214 10.7041 3.87889V1.2482ZM5.24921 1.2482C5.24921 0.93494 5.5052 0.67895 5.81845 0.67895C6.13171 0.67895 6.3877 0.934945 6.3877 1.2482V3.87889C6.3877 4.19214 6.1317 4.44813 5.81845 4.44813C5.5052 4.44813 5.24921 4.19214 5.24921 3.87889V1.2482ZM5.81845 5.12853C6.5073 5.12853 7.06641 4.56769 7.06641 3.88057V2.17452H10.0238V3.88057C10.0238 4.56941 10.5847 5.12853 11.2718 5.12853C11.9606 5.12853 12.5197 4.56769 12.5197 3.88057V2.17452H15.4772V3.88057C15.4772 4.56941 16.038 5.12853 16.7251 5.12853C17.414 5.12853 17.9731 4.56769 17.9731 3.88057V2.17452H20.9305V3.88057C20.9305 4.56941 21.4913 5.12853 22.1785 5.12853C22.8673 5.12853 23.4264 4.56769 23.4264 3.88057V2.17452H27.0811C27.1164 2.17452 27.1737 2.1981 27.2158 2.24188C27.2411 2.26883 27.2545 2.29578 27.2529 2.31767C27.1804 3.64311 27.1383 4.96181 27.1215 6.27716L0.733945 6.27548V3.65155C0.749103 3.21872 0.765945 2.78421 0.787839 2.35138C0.792892 2.2436 0.828259 2.18802 0.841733 2.17623C0.845101 2.17623 0.850154 2.17286 0.853522 2.17286H4.57385V3.87891C4.57385 4.56776 5.13469 5.12687 5.82181 5.12687L5.81845 5.12853ZM27.2025 33.0605C27.2025 33.1817 27.1318 33.2626 27.0846 33.2626L0.85187 33.2609C0.804711 33.2609 0.733977 33.18 0.733977 33.0588V18.4571C1.26282 22.5934 2.07291 26.7196 3.16591 30.8155C3.28717 31.2736 3.61728 31.5683 4.00462 31.5683H27.2056V33.0605L27.2025 33.0605ZM30.3081 30.8559C30.293 30.8761 30.2627 30.8912 30.2374 30.8912L4.00463 30.8895C3.94905 30.8895 3.86316 30.7952 3.82106 30.6403C2.01058 23.8497 0.979878 16.9716 0.733951 10.1069V6.95241H27.125C27.0845 15.1779 28.1523 23.1877 30.3164 30.8203C30.3198 30.8338 30.3198 30.8405 30.3114 30.854L30.3081 30.8559ZM7.19774 19.9172C7.26174 19.8448 7.29205 19.7488 7.28195 19.6528L6.99227 17.0356C6.97374 16.8638 6.82722 16.7341 6.65544 16.7341H4.4239C4.3279 16.7341 4.23527 16.7745 4.17127 16.847C4.10727 16.9194 4.07696 17.0154 4.08707 17.1114L4.37675 19.7286C4.39527 19.9004 4.54179 20.03 4.71358 20.03H6.94512C7.04112 20.03 7.13374 19.9896 7.19774 19.9172ZM5.01673 19.3513L4.80116 17.4128H6.35062L6.56619 19.3513H5.01673ZM11.6607 19.9172C11.7247 19.8448 11.755 19.7488 11.7449 19.6528L11.4553 17.0356C11.4367 16.8638 11.2902 16.7341 11.1184 16.7341H8.88688C8.79088 16.7341 8.69825 16.7745 8.63426 16.847C8.57026 16.9194 8.53994 17.0154 8.55005 17.1114L8.83973 19.7286C8.85825 19.9004 9.00478 20.03 9.17656 20.03H11.4081C11.5041 20.03 11.5967 19.9896 11.6607 19.9172ZM9.47972 19.3513L9.26415 17.4128H10.8136L11.0292 19.3513H9.47972ZM16.1237 19.9172C16.1877 19.8448 16.218 19.7488 16.2079 19.6528L15.9182 17.0356C15.8997 16.8638 15.7532 16.7341 15.5814 16.7341H13.3499C13.2539 16.7341 13.1612 16.7745 13.0972 16.847C13.0332 16.9194 13.0029 17.0154 13.013 17.1114L13.3027 19.7286C13.3212 19.9004 13.4678 20.03 13.6395 20.03H15.8711C15.9671 20.03 16.0597 19.9896 16.1237 19.9172ZM13.9427 19.3513L13.7271 17.4128H15.2766L15.4922 19.3513H13.9427ZM20.5867 19.9172C20.6507 19.8448 20.681 19.7488 20.6709 19.6528L20.3812 17.0356C20.3627 16.8638 20.2162 16.7341 20.0444 16.7341H17.8129C17.7169 16.7341 17.6242 16.7745 17.5602 16.847C17.4962 16.9194 17.4659 17.0154 17.476 17.1114L17.7657 19.7286C17.7842 19.9004 17.9307 20.03 18.1025 20.03H20.3341C20.4301 20.03 20.5227 19.9896 20.5867 19.9172ZM18.4057 19.3513L18.1901 17.4128H19.7396L19.9552 19.3513H18.4057ZM25.0497 19.9172C25.1137 19.8448 25.144 19.7488 25.1339 19.6528L24.8442 17.0356C24.8257 16.8638 24.6792 16.7341 24.5074 16.7341H22.2758C22.1798 16.7341 22.0872 16.7745 22.0232 16.847C21.9592 16.9194 21.9289 17.0154 21.939 17.1114L22.2287 19.7286C22.2472 19.9004 22.3937 20.03 22.5655 20.03H24.7971C24.8931 20.03 24.9857 19.9896 25.0497 19.9172ZM22.8687 19.3513L22.6531 17.4128H24.2026L24.4181 19.3513H22.8687ZM8.05788 23.0616C8.01746 22.9134 7.88273 22.8123 7.73115 22.8123H5.49962C5.39351 22.8123 5.29415 22.8612 5.23015 22.9454C5.16615 23.0296 5.14425 23.139 5.17289 23.2418L5.89036 25.859C5.93078 26.0072 6.06551 26.1082 6.21709 26.1082H8.44862C8.55473 26.1082 8.65409 26.0594 8.71809 25.9752C8.78209 25.891 8.80398 25.7815 8.77535 25.6788L8.05788 23.0616ZM6.47643 25.4278L5.94422 23.4894H7.47178L8.00399 25.4278H6.47643ZM12.5224 23.0616C12.482 22.9134 12.3473 22.8123 12.1957 22.8123H9.96415C9.85805 22.8123 9.75869 22.8612 9.69468 22.9454C9.63069 23.0296 9.60879 23.139 9.63742 23.2418L10.3549 25.859C10.3953 26.0072 10.5301 26.1082 10.6816 26.1082H12.9132C13.0193 26.1082 13.1186 26.0594 13.1826 25.9752C13.2466 25.891 13.2685 25.7815 13.2399 25.6788L12.5224 23.0616ZM10.941 25.4278L10.4088 23.4894H11.9363L12.4685 25.4278H10.941ZM16.987 23.0616C16.9465 22.9134 16.8118 22.8123 16.6602 22.8123H14.4287C14.3226 22.8123 14.2232 22.8612 14.1592 22.9454C14.0952 23.0296 14.0733 23.139 14.102 23.2418L14.8194 25.859C14.8599 26.0072 14.9946 26.1082 15.1462 26.1082H17.3777C17.4838 26.1082 17.5832 26.0594 17.6472 25.9752C17.7112 25.891 17.7331 25.7815 17.7044 25.6788L16.987 23.0616ZM15.4055 25.4278L14.8733 23.4894H16.4009L16.9331 25.4278H15.4055ZM21.4515 23.0616C21.4111 22.9134 21.2763 22.8123 21.1248 22.8123H18.8932C18.7871 22.8123 18.6878 22.8612 18.6238 22.9454C18.5598 23.0296 18.5379 23.139 18.5665 23.2418L19.284 25.859C19.3244 26.0072 19.4591 26.1082 19.6107 26.1082H21.8422C21.9483 26.1082 22.0477 26.0594 22.1117 25.9752C22.1757 25.891 22.1976 25.7815 22.169 25.6788L21.4515 23.0616ZM19.87 25.4278L19.3378 23.4894H20.8654L21.3976 25.4278H19.87ZM25.916 23.0616C25.8756 22.9134 25.7409 22.8123 25.5893 22.8123H23.3578C23.2517 22.8123 23.1523 22.8612 23.0883 22.9454C23.0243 23.0296 23.0024 23.139 23.031 23.2418L23.7485 25.859C23.7889 26.0072 23.9237 26.1082 24.0752 26.1082H26.3068C26.4129 26.1082 26.5122 26.0594 26.5762 25.9752C26.6402 25.891 26.6621 25.7815 26.6335 25.6788L25.916 23.0616ZM24.3346 25.4278L23.8024 23.4894H25.3299L25.8621 25.4278H24.3346ZM6.39149 13.952C6.57843 13.952 6.73169 13.8004 6.73169 13.6118V10.9946C6.73169 10.8076 6.58012 10.6544 6.39149 10.6544H4.15996C3.97302 10.6544 3.81976 10.8059 3.81976 10.9946V13.6118C3.81976 13.7987 3.97133 13.952 4.15996 13.952H6.39149ZM4.49849 11.3348H6.05132V13.2733H4.49849V11.3348ZM8.62303 13.952H10.8546C11.0415 13.952 11.1948 13.8004 11.1948 13.6118V10.9946C11.1948 10.8076 11.0432 10.6544 10.8546 10.6544H8.62303C8.43609 10.6544 8.28283 10.8059 8.28283 10.9946V13.6118C8.28283 13.7987 8.4344 13.952 8.62303 13.952ZM8.96323 11.3348H10.5161V13.2733H8.96323V11.3348ZM13.0878 13.952H15.3193C15.5062 13.952 15.6595 13.8004 15.6595 13.6118V10.9946C15.6595 10.8076 15.5079 10.6544 15.3193 10.6544H13.0878C12.9008 10.6544 12.7476 10.8059 12.7476 10.9946V13.6118C12.7476 13.7987 12.8991 13.952 13.0878 13.952ZM13.428 11.3348H14.9808V13.2733H13.428V11.3348ZM17.5525 13.952H19.784C19.971 13.952 20.1242 13.8004 20.1242 13.6118V10.9946C20.1242 10.8076 19.9727 10.6544 19.784 10.6544H17.5525C17.3656 10.6544 17.2123 10.8059 17.2123 10.9946V13.6118C17.2123 13.7987 17.3639 13.952 17.5525 13.952ZM17.8927 11.3348H19.4455V13.2733H17.8927V11.3348ZM22.0172 13.952H24.2488C24.4357 13.952 24.589 13.8004 24.589 13.6118V10.9946C24.589 10.8076 24.4374 10.6544 24.2488 10.6544H22.0172C21.8303 10.6544 21.677 10.8059 21.677 10.9946V13.6118C21.677 13.7987 21.8286 13.952 22.0172 13.952ZM22.3574 11.3348H23.9103V13.2733H22.3574V11.3348Z" fill="#825E3A"/>
</svg>
